<mxfile host="app.diagrams.net" modified="2021-03-26T13:48:35.807Z" agent="5.0 (Macintosh; Intel Mac OS X 10_15_7) AppleWebKit/605.1.15 (KHTML, like Gecko) Version/14.0.3 Safari/605.1.15" etag="gbomkT8lWbmBsX2gxoEm" version="14.5.1" type="github">
  <diagram id="mPqJO3_TyB6vij-aVu-d" name="Page-1">
    <mxGraphModel dx="3417" dy="1622" grid="1" gridSize="10" guides="1" tooltips="1" connect="1" arrows="1" fold="1" page="1" pageScale="1" pageWidth="1169" pageHeight="827" math="0" shadow="0">
      <root>
        <mxCell id="0" />
        <mxCell id="1" parent="0" />
        <mxCell id="EWyWl-gvHmMmUgQtZdom-1" value="&lt;b&gt;Google &lt;/b&gt;Cloud Platform" style="fillColor=#F6F6F6;strokeColor=none;shadow=0;gradientColor=none;fontSize=14;align=left;spacing=10;fontColor=#717171;9E9E9E;verticalAlign=top;spacingTop=-4;fontStyle=0;spacingLeft=40;html=1;" parent="1" vertex="1">
          <mxGeometry x="-750" y="50" width="1260" height="650" as="geometry" />
        </mxCell>
        <mxCell id="EWyWl-gvHmMmUgQtZdom-2" value="" style="shape=mxgraph.gcp2.google_cloud_platform;fillColor=#F6F6F6;strokeColor=none;shadow=0;gradientColor=none;" parent="EWyWl-gvHmMmUgQtZdom-1" vertex="1">
          <mxGeometry width="23" height="20" relative="1" as="geometry">
            <mxPoint x="20" y="10" as="offset" />
          </mxGeometry>
        </mxCell>
        <mxCell id="EWyWl-gvHmMmUgQtZdom-5" value="" style="strokeColor=#dddddd;shadow=1;strokeWidth=1;rounded=1;absoluteArcSize=1;arcSize=2;" parent="EWyWl-gvHmMmUgQtZdom-1" vertex="1">
          <mxGeometry x="653.2113207547169" y="163.0664285714285" width="120.0611320754717" height="57.04214285714285" as="geometry" />
        </mxCell>
        <mxCell id="EWyWl-gvHmMmUgQtZdom-6" value="Cloud&#xa;Storage" style="dashed=0;connectable=0;html=1;fillColor=#5184F3;strokeColor=none;shape=mxgraph.gcp2.hexIcon;prIcon=cloud_storage;part=1;labelPosition=right;verticalLabelPosition=middle;align=left;verticalAlign=middle;spacingLeft=5;fontColor=#999999;fontSize=12;" parent="EWyWl-gvHmMmUgQtZdom-5" vertex="1">
          <mxGeometry y="0.5" width="44" height="39" relative="1" as="geometry">
            <mxPoint x="5" y="-19.5" as="offset" />
          </mxGeometry>
        </mxCell>
        <mxCell id="EWyWl-gvHmMmUgQtZdom-20" value="" style="strokeColor=#dddddd;shadow=1;strokeWidth=1;rounded=1;absoluteArcSize=1;arcSize=2;" parent="EWyWl-gvHmMmUgQtZdom-1" vertex="1">
          <mxGeometry x="300.00377358490573" y="415.10857142857145" width="98.11320754716981" height="55.71428571428571" as="geometry" />
        </mxCell>
        <mxCell id="EWyWl-gvHmMmUgQtZdom-21" value="Cloud&#xa;Build" style="dashed=0;connectable=0;html=1;fillColor=#5184F3;strokeColor=none;shape=mxgraph.gcp2.hexIcon;prIcon=container_builder;part=1;labelPosition=right;verticalLabelPosition=middle;align=left;verticalAlign=middle;spacingLeft=5;fontColor=#999999;fontSize=12;" parent="EWyWl-gvHmMmUgQtZdom-20" vertex="1">
          <mxGeometry y="0.5" width="44" height="39" relative="1" as="geometry">
            <mxPoint x="5" y="-19.5" as="offset" />
          </mxGeometry>
        </mxCell>
        <mxCell id="EWyWl-gvHmMmUgQtZdom-22" value="" style="strokeColor=#dddddd;shadow=1;strokeWidth=1;rounded=1;absoluteArcSize=1;arcSize=2;" parent="EWyWl-gvHmMmUgQtZdom-1" vertex="1">
          <mxGeometry x="437.36226415094336" y="415.10857142857145" width="117.73584905660378" height="55.71428571428571" as="geometry" />
        </mxCell>
        <mxCell id="EWyWl-gvHmMmUgQtZdom-23" value="Container&#xa;Registry" style="dashed=0;connectable=0;html=1;fillColor=#5184F3;strokeColor=none;shape=mxgraph.gcp2.hexIcon;prIcon=container_registry;part=1;labelPosition=right;verticalLabelPosition=middle;align=left;verticalAlign=middle;spacingLeft=5;fontColor=#999999;fontSize=12;" parent="EWyWl-gvHmMmUgQtZdom-22" vertex="1">
          <mxGeometry y="0.5" width="44" height="39" relative="1" as="geometry">
            <mxPoint x="5" y="-19.5" as="offset" />
          </mxGeometry>
        </mxCell>
        <mxCell id="EWyWl-gvHmMmUgQtZdom-10" value="" style="strokeColor=#dddddd;shadow=1;strokeWidth=1;rounded=1;absoluteArcSize=1;arcSize=2;" parent="EWyWl-gvHmMmUgQtZdom-1" vertex="1">
          <mxGeometry x="594.343396226415" y="415.10857142857145" width="127.54716981132076" height="55.71428571428571" as="geometry" />
        </mxCell>
        <mxCell id="EWyWl-gvHmMmUgQtZdom-11" value="Kubernetes&#xa;Engine" style="dashed=0;connectable=0;html=1;fillColor=#5184F3;strokeColor=none;shape=mxgraph.gcp2.hexIcon;prIcon=container_engine;part=1;labelPosition=right;verticalLabelPosition=middle;align=left;verticalAlign=middle;spacingLeft=5;fontColor=#999999;fontSize=12;" parent="EWyWl-gvHmMmUgQtZdom-10" vertex="1">
          <mxGeometry y="0.5" width="44" height="39" relative="1" as="geometry">
            <mxPoint x="5" y="-19.5" as="offset" />
          </mxGeometry>
        </mxCell>
        <mxCell id="EWyWl-gvHmMmUgQtZdom-28" value="" style="edgeStyle=orthogonalEdgeStyle;fontSize=12;html=1;endArrow=blockThin;endFill=1;rounded=0;strokeWidth=2;endSize=4;startSize=4;dashed=0;strokeColor=#4284F3;" parent="EWyWl-gvHmMmUgQtZdom-1" edge="1">
          <mxGeometry width="100" relative="1" as="geometry">
            <mxPoint x="398.11698113207547" y="442.50142857142856" as="sourcePoint" />
            <mxPoint x="437.36226415094336" y="442.50142857142856" as="targetPoint" />
          </mxGeometry>
        </mxCell>
        <mxCell id="EWyWl-gvHmMmUgQtZdom-29" value="" style="edgeStyle=orthogonalEdgeStyle;fontSize=12;html=1;endArrow=blockThin;endFill=1;rounded=0;strokeWidth=2;endSize=4;startSize=4;dashed=0;strokeColor=#4284F3;" parent="EWyWl-gvHmMmUgQtZdom-1" edge="1">
          <mxGeometry width="100" relative="1" as="geometry">
            <mxPoint x="555.0981132075472" y="442.50142857142856" as="sourcePoint" />
            <mxPoint x="594.343396226415" y="442.50142857142856" as="targetPoint" />
          </mxGeometry>
        </mxCell>
        <mxCell id="EWyWl-gvHmMmUgQtZdom-14" value="" style="strokeColor=#dddddd;shadow=1;strokeWidth=1;rounded=1;absoluteArcSize=1;arcSize=2;" parent="EWyWl-gvHmMmUgQtZdom-1" vertex="1">
          <mxGeometry x="300.00377358490573" y="303.68" width="107.92452830188678" height="55.71428571428571" as="geometry" />
        </mxCell>
        <mxCell id="EWyWl-gvHmMmUgQtZdom-15" value="Cloud&#xa;Console" style="dashed=0;connectable=0;html=1;fillColor=#5184F3;strokeColor=none;shape=mxgraph.gcp2.hexIcon;prIcon=placeholder;part=1;labelPosition=right;verticalLabelPosition=middle;align=left;verticalAlign=middle;spacingLeft=5;fontColor=#999999;fontSize=12;" parent="EWyWl-gvHmMmUgQtZdom-14" vertex="1">
          <mxGeometry y="0.5" width="44" height="39" relative="1" as="geometry">
            <mxPoint x="5" y="-19.5" as="offset" />
          </mxGeometry>
        </mxCell>
        <mxCell id="EWyWl-gvHmMmUgQtZdom-3" value="" style="strokeColor=#dddddd;shadow=1;strokeWidth=1;rounded=1;absoluteArcSize=1;arcSize=2;" parent="EWyWl-gvHmMmUgQtZdom-1" vertex="1">
          <mxGeometry x="447.1735849056604" y="279.80377551020405" width="130" height="79.59183673469389" as="geometry" />
        </mxCell>
        <mxCell id="EWyWl-gvHmMmUgQtZdom-4" value="Cloud&#xa;SQL" style="dashed=0;connectable=0;html=1;fillColor=#5184F3;strokeColor=none;shape=mxgraph.gcp2.hexIcon;prIcon=cloud_sql;part=1;labelPosition=right;verticalLabelPosition=middle;align=left;verticalAlign=middle;spacingLeft=5;fontColor=#999999;fontSize=12;" parent="EWyWl-gvHmMmUgQtZdom-3" vertex="1">
          <mxGeometry y="0.5" width="44" height="39" relative="1" as="geometry">
            <mxPoint x="5" y="-19.5" as="offset" />
          </mxGeometry>
        </mxCell>
        <mxCell id="EWyWl-gvHmMmUgQtZdom-12" value="" style="strokeColor=#dddddd;shadow=1;strokeWidth=1;rounded=1;absoluteArcSize=1;arcSize=2;" parent="EWyWl-gvHmMmUgQtZdom-1" vertex="1">
          <mxGeometry x="447.1735849056604" y="164.39428571428567" width="127.54716981132076" height="55.71428571428571" as="geometry" />
        </mxCell>
        <mxCell id="EWyWl-gvHmMmUgQtZdom-13" value="Stackdriver" style="dashed=0;connectable=0;html=1;fillColor=#5184F3;strokeColor=none;shape=mxgraph.gcp2.hexIcon;prIcon=stackdriver;part=1;labelPosition=right;verticalLabelPosition=middle;align=left;verticalAlign=middle;spacingLeft=5;fontColor=#999999;fontSize=12;" parent="EWyWl-gvHmMmUgQtZdom-12" vertex="1">
          <mxGeometry y="0.5" width="44" height="39" relative="1" as="geometry">
            <mxPoint x="5" y="-19.5" as="offset" />
          </mxGeometry>
        </mxCell>
        <mxCell id="EWyWl-gvHmMmUgQtZdom-18" value="" style="strokeColor=#dddddd;shadow=1;strokeWidth=1;rounded=1;absoluteArcSize=1;arcSize=2;" parent="EWyWl-gvHmMmUgQtZdom-1" vertex="1">
          <mxGeometry x="820.0037735849056" y="415.10857142857145" width="127.54716981132076" height="55.71428571428571" as="geometry" />
        </mxCell>
        <mxCell id="EWyWl-gvHmMmUgQtZdom-19" value="Cloud Load&#xa;Balancing" style="dashed=0;connectable=0;html=1;fillColor=#5184F3;strokeColor=none;shape=mxgraph.gcp2.hexIcon;prIcon=cloud_load_balancing;part=1;labelPosition=right;verticalLabelPosition=middle;align=left;verticalAlign=middle;spacingLeft=5;fontColor=#999999;fontSize=12;" parent="EWyWl-gvHmMmUgQtZdom-18" vertex="1">
          <mxGeometry y="0.5" width="44" height="39" relative="1" as="geometry">
            <mxPoint x="5" y="-19.5" as="offset" />
          </mxGeometry>
        </mxCell>
        <mxCell id="EWyWl-gvHmMmUgQtZdom-30" value="" style="edgeStyle=orthogonalEdgeStyle;fontSize=12;html=1;endArrow=blockThin;endFill=1;rounded=0;strokeWidth=2;endSize=4;startSize=4;dashed=0;strokeColor=#4284F3;entryX=0;entryY=0.5;entryDx=0;entryDy=0;" parent="EWyWl-gvHmMmUgQtZdom-1" target="EWyWl-gvHmMmUgQtZdom-18" edge="1">
          <mxGeometry width="100" relative="1" as="geometry">
            <mxPoint x="721.8905660377358" y="442.50142857142856" as="sourcePoint" />
            <mxPoint x="761.1358490566038" y="442.50142857142856" as="targetPoint" />
          </mxGeometry>
        </mxCell>
        <mxCell id="EWyWl-gvHmMmUgQtZdom-31" value="" style="edgeStyle=orthogonalEdgeStyle;fontSize=12;html=1;endArrow=blockThin;endFill=1;rounded=0;strokeWidth=2;endSize=4;startSize=4;dashed=0;strokeColor=#4284F3;entryX=0.445;entryY=1.023;entryDx=0;entryDy=0;entryPerimeter=0;exitX=0.5;exitY=0;exitDx=0;exitDy=0;" parent="EWyWl-gvHmMmUgQtZdom-1" source="EWyWl-gvHmMmUgQtZdom-10" target="EWyWl-gvHmMmUgQtZdom-3" edge="1">
          <mxGeometry width="100" relative="1" as="geometry">
            <mxPoint x="663.0226415094339" y="387.25142857142856" as="sourcePoint" />
            <mxPoint x="702.2679245283018" y="387.25142857142856" as="targetPoint" />
          </mxGeometry>
        </mxCell>
        <mxCell id="EWyWl-gvHmMmUgQtZdom-32" value="" style="edgeStyle=orthogonalEdgeStyle;fontSize=12;html=1;endArrow=blockThin;endFill=1;rounded=0;strokeWidth=2;endSize=4;startSize=4;dashed=0;strokeColor=#4284F3;entryX=1;entryY=0.5;entryDx=0;entryDy=0;" parent="EWyWl-gvHmMmUgQtZdom-1" target="EWyWl-gvHmMmUgQtZdom-12" edge="1">
          <mxGeometry width="100" relative="1" as="geometry">
            <mxPoint x="686.3245283018867" y="415.10857142857145" as="sourcePoint" />
            <mxPoint x="600.477924528302" y="192.25408163265308" as="targetPoint" />
            <Array as="points">
              <mxPoint x="686.5698113207546" y="322.2514285714285" />
              <mxPoint x="623.777358490566" y="322.2514285714285" />
              <mxPoint x="623.777358490566" y="192.2514285714285" />
            </Array>
          </mxGeometry>
        </mxCell>
        <mxCell id="EWyWl-gvHmMmUgQtZdom-34" value="" style="edgeStyle=orthogonalEdgeStyle;fontSize=12;html=1;endArrow=blockThin;endFill=1;rounded=0;strokeWidth=2;endSize=4;startSize=4;dashed=0;strokeColor=#4284F3;exitX=0.438;exitY=0.02;exitDx=0;exitDy=0;exitPerimeter=0;" parent="EWyWl-gvHmMmUgQtZdom-1" source="EWyWl-gvHmMmUgQtZdom-3" edge="1">
          <mxGeometry width="100" relative="1" as="geometry">
            <mxPoint x="506.04150943396223" y="270.2514285714285" as="sourcePoint" />
            <mxPoint x="504.07924528301885" y="221.03714285714284" as="targetPoint" />
          </mxGeometry>
        </mxCell>
        <mxCell id="EWyWl-gvHmMmUgQtZdom-40" value="" style="edgeStyle=orthogonalEdgeStyle;fontSize=12;html=1;endArrow=blockThin;endFill=1;rounded=0;strokeWidth=2;endSize=4;startSize=4;dashed=0;strokeColor=#4284F3;entryX=0.5;entryY=0;entryDx=0;entryDy=0;" parent="EWyWl-gvHmMmUgQtZdom-1" target="EWyWl-gvHmMmUgQtZdom-20" edge="1">
          <mxGeometry width="100" relative="1" as="geometry">
            <mxPoint x="349.06037735849054" y="361.25142857142856" as="sourcePoint" />
            <mxPoint x="378.4943396226415" y="377.9657142857142" as="targetPoint" />
          </mxGeometry>
        </mxCell>
        <mxCell id="EWyWl-gvHmMmUgQtZdom-41" value="" style="edgeStyle=orthogonalEdgeStyle;fontSize=12;html=1;endArrow=blockThin;endFill=1;rounded=0;strokeWidth=2;endSize=4;startSize=4;dashed=0;strokeColor=#4284F3;" parent="EWyWl-gvHmMmUgQtZdom-1" edge="1">
          <mxGeometry width="100" relative="1" as="geometry">
            <mxPoint x="407.9283018867925" y="331.0728571428571" as="sourcePoint" />
            <mxPoint x="447.1735849056604" y="331.0728571428571" as="targetPoint" />
          </mxGeometry>
        </mxCell>
        <mxCell id="EWyWl-gvHmMmUgQtZdom-42" value="" style="edgeStyle=orthogonalEdgeStyle;fontSize=12;html=1;endArrow=blockThin;endFill=1;rounded=0;strokeWidth=2;endSize=4;startSize=4;dashed=0;strokeColor=#4284F3;entryX=0;entryY=0.5;entryDx=0;entryDy=0;exitX=0.5;exitY=0;exitDx=0;exitDy=0;" parent="EWyWl-gvHmMmUgQtZdom-1" source="EWyWl-gvHmMmUgQtZdom-14" target="EWyWl-gvHmMmUgQtZdom-12" edge="1">
          <mxGeometry width="100" relative="1" as="geometry">
            <mxPoint x="358.8716981132076" y="285.1085714285714" as="sourcePoint" />
            <mxPoint x="398.11698113207547" y="285.1085714285714" as="targetPoint" />
          </mxGeometry>
        </mxCell>
        <mxCell id="EWyWl-gvHmMmUgQtZdom-26" value="" style="edgeStyle=orthogonalEdgeStyle;fontSize=12;html=1;endArrow=blockThin;endFill=1;rounded=0;strokeWidth=2;endSize=4;startSize=4;dashed=0;strokeColor=#4284F3;entryX=0.5;entryY=1;entryDx=0;entryDy=0;" parent="EWyWl-gvHmMmUgQtZdom-1" target="EWyWl-gvHmMmUgQtZdom-5" edge="1">
          <mxGeometry width="100" relative="1" as="geometry">
            <mxPoint x="577.1735849056604" y="312.9657142857142" as="sourcePoint" />
            <mxPoint x="616.4188679245283" y="312.9657142857142" as="targetPoint" />
          </mxGeometry>
        </mxCell>
        <mxCell id="nQE5AOM5Q5gCPsJmlipD-7" value="" style="strokeColor=#dddddd;shadow=1;strokeWidth=1;rounded=1;absoluteArcSize=1;arcSize=2;" vertex="1" parent="EWyWl-gvHmMmUgQtZdom-1">
          <mxGeometry x="850" y="314" width="230" height="60" as="geometry" />
        </mxCell>
        <mxCell id="nQE5AOM5Q5gCPsJmlipD-8" value="&lt;font color=&quot;#000000&quot;&gt;&lt;span&gt;https://nodejam.example.com&lt;/span&gt;&lt;/font&gt;&lt;br&gt;Cloud  DNS" style="dashed=0;connectable=0;html=1;fillColor=#5184F3;strokeColor=none;shape=mxgraph.gcp2.hexIcon;prIcon=cloud_dns;part=1;labelPosition=right;verticalLabelPosition=middle;align=left;verticalAlign=middle;spacingLeft=5;fontColor=#999999;fontSize=12;" vertex="1" parent="nQE5AOM5Q5gCPsJmlipD-7">
          <mxGeometry y="0.5" width="44" height="39" relative="1" as="geometry">
            <mxPoint x="5" y="-19.5" as="offset" />
          </mxGeometry>
        </mxCell>
        <mxCell id="nQE5AOM5Q5gCPsJmlipD-9" value="" style="aspect=fixed;perimeter=ellipsePerimeter;html=1;align=center;shadow=0;dashed=0;spacingTop=3;image;image=img/lib/active_directory/internet_cloud.svg;" vertex="1" parent="EWyWl-gvHmMmUgQtZdom-1">
          <mxGeometry x="1090" y="414.61999999999995" width="90" height="56.7" as="geometry" />
        </mxCell>
        <mxCell id="nQE5AOM5Q5gCPsJmlipD-17" value="" style="strokeColor=#dddddd;shadow=1;strokeWidth=1;rounded=1;absoluteArcSize=1;arcSize=2;" vertex="1" parent="EWyWl-gvHmMmUgQtZdom-1">
          <mxGeometry x="119" y="415.10999999999996" width="140" height="60" as="geometry" />
        </mxCell>
        <mxCell id="nQE5AOM5Q5gCPsJmlipD-18" value="Cloud Source&#xa;Repositories" style="dashed=0;connectable=0;html=1;fillColor=#5184F3;strokeColor=none;shape=mxgraph.gcp2.hexIcon;prIcon=placeholder;part=1;labelPosition=right;verticalLabelPosition=middle;align=left;verticalAlign=middle;spacingLeft=5;fontColor=#999999;fontSize=12;" vertex="1" parent="nQE5AOM5Q5gCPsJmlipD-17">
          <mxGeometry y="0.5" width="44" height="39" relative="1" as="geometry">
            <mxPoint x="5" y="-19.5" as="offset" />
          </mxGeometry>
        </mxCell>
        <mxCell id="nQE5AOM5Q5gCPsJmlipD-13" value="Desktop" style="strokeColor=#dddddd;shadow=1;strokeWidth=1;rounded=1;absoluteArcSize=1;arcSize=2;labelPosition=center;verticalLabelPosition=middle;align=center;verticalAlign=bottom;spacingLeft=0;fontColor=#999999;fontSize=12;whiteSpace=wrap;spacingBottom=2;" vertex="1" parent="EWyWl-gvHmMmUgQtZdom-1">
          <mxGeometry x="10" y="401.94" width="70" height="85" as="geometry" />
        </mxCell>
        <mxCell id="nQE5AOM5Q5gCPsJmlipD-14" value="" style="dashed=0;connectable=0;html=1;fillColor=#757575;strokeColor=none;shape=mxgraph.gcp2.desktop;part=1;" vertex="1" parent="nQE5AOM5Q5gCPsJmlipD-13">
          <mxGeometry x="0.5" width="50" height="45" relative="1" as="geometry">
            <mxPoint x="-25" y="12.5" as="offset" />
          </mxGeometry>
        </mxCell>
        <mxCell id="nQE5AOM5Q5gCPsJmlipD-24" value="" style="edgeStyle=orthogonalEdgeStyle;fontSize=12;html=1;endArrow=blockThin;endFill=1;rounded=0;strokeWidth=2;endSize=4;startSize=4;dashed=0;strokeColor=#4284F3;" edge="1" parent="EWyWl-gvHmMmUgQtZdom-1">
          <mxGeometry width="100" relative="1" as="geometry">
            <mxPoint x="258.9969811320756" y="444.61142857142875" as="sourcePoint" />
            <mxPoint x="298.24226415094324" y="444.61142857142875" as="targetPoint" />
          </mxGeometry>
        </mxCell>
        <mxCell id="nQE5AOM5Q5gCPsJmlipD-25" value="" style="edgeStyle=orthogonalEdgeStyle;fontSize=12;html=1;endArrow=blockThin;endFill=1;rounded=0;strokeWidth=2;endSize=4;startSize=4;dashed=0;strokeColor=#4284F3;" edge="1" parent="EWyWl-gvHmMmUgQtZdom-1">
          <mxGeometry width="100" relative="1" as="geometry">
            <mxPoint x="79.99698113207558" y="444.61142857142875" as="sourcePoint" />
            <mxPoint x="119.24226415094324" y="444.61142857142875" as="targetPoint" />
          </mxGeometry>
        </mxCell>
        <mxCell id="nQE5AOM5Q5gCPsJmlipD-26" value="Cloud Scheduler" style="html=1;fillColor=#5184F3;strokeColor=none;verticalAlign=top;labelPosition=center;verticalLabelPosition=bottom;align=center;fontSize=11;fontStyle=1;fontColor=#999999;shape=mxgraph.gcp2.cloud_scheduler;shadow=0;" vertex="1" parent="EWyWl-gvHmMmUgQtZdom-1">
          <mxGeometry x="730.0000000000001" y="279.8" width="30" height="34.5" as="geometry" />
        </mxCell>
        <mxCell id="nQE5AOM5Q5gCPsJmlipD-19" value="Laptop" style="strokeColor=#dddddd;shadow=1;strokeWidth=1;rounded=1;absoluteArcSize=1;arcSize=2;labelPosition=center;verticalLabelPosition=middle;align=center;verticalAlign=bottom;spacingLeft=0;fontColor=#999999;fontSize=12;whiteSpace=wrap;spacingBottom=2;" vertex="1" parent="1">
          <mxGeometry x="560" y="440.11" width="70" height="85" as="geometry" />
        </mxCell>
        <mxCell id="nQE5AOM5Q5gCPsJmlipD-20" value="" style="dashed=0;connectable=0;html=1;fillColor=#757575;strokeColor=none;shape=mxgraph.gcp2.laptop;part=1;" vertex="1" parent="nQE5AOM5Q5gCPsJmlipD-19">
          <mxGeometry x="0.5" width="50" height="33" relative="1" as="geometry">
            <mxPoint x="-25" y="18.5" as="offset" />
          </mxGeometry>
        </mxCell>
        <mxCell id="nQE5AOM5Q5gCPsJmlipD-21" value="" style="edgeStyle=orthogonalEdgeStyle;fontSize=12;html=1;endArrow=blockThin;endFill=1;rounded=0;strokeWidth=2;endSize=4;startSize=4;dashed=0;strokeColor=#4284F3;entryX=1;entryY=0.5;entryDx=0;entryDy=0;exitX=-0.057;exitY=0.622;exitDx=0;exitDy=0;exitPerimeter=0;" edge="1" parent="1" source="nQE5AOM5Q5gCPsJmlipD-19" target="EWyWl-gvHmMmUgQtZdom-18">
          <mxGeometry width="100" relative="1" as="geometry">
            <mxPoint x="440" y="493.94" as="sourcePoint" />
            <mxPoint x="240" y="493.94" as="targetPoint" />
          </mxGeometry>
        </mxCell>
      </root>
    </mxGraphModel>
  </diagram>
</mxfile>
